HIERARCHY
ROOT Hips
{
  OFFSET 0 0 0
  CHANNELS 6 Xposition Yposition Zposition Zrotation Yrotation Xrotation
  JOINT LeftThigh
  {
    OFFSET 8.409438 0 -5.917753
    CHANNELS 3 Zrotation Yrotation Xrotation
    JOINT LeftLeg
    {
      OFFSET 0 0 -42.358652
      CHANNELS 3 Zrotation Yrotation Xrotation
      JOINT LeftFoot
      {
        OFFSET 0 0 -39.357303
        CHANNELS 3 Zrotation Yrotation Xrotation
      }
    }
  }
  JOINT RightThigh
  {
    OFFSET -8.409438 0 -5.917753
    CHANNELS 3 Zrotation Yrotation Xrotation
    JOINT RightLeg
    {
      OFFSET 0 0 -42.358652
      CHANNELS 3 Zrotation Yrotation Xrotation
      JOINT RightFoot
      {
        OFFSET 0 0 -39.357303
        CHANNELS 3 Zrotation Yrotation Xrotation
      }
    }
  }
  JOINT SpineLow
  {
    OFFSET 0 0 4.719101
    CHANNELS 3 Zrotation Yrotation Xrotation
    JOINT SpineMid
    {
      OFFSET 0 0 12.899191
      CHANNELS 3 Zrotation Yrotation Xrotation
      JOINT Chest
      {
        OFFSET 0 0 12.899191
        CHANNELS 3 Zrotation Yrotation Xrotation
        JOINT LeftShoulder
        {
          OFFSET 7.550562 1.41573 9.438202
          CHANNELS 3 Zrotation Yrotation Xrotation
          JOINT LeftArm
          {
            OFFSET 9.155056 0 4.247191
            CHANNELS 3 Zrotation Yrotation Xrotation
            JOINT LeftForearm
            {
              OFFSET 0 0 25.771955
              CHANNELS 3 Zrotation Yrotation Xrotation
              JOINT LeftHand
              {
                OFFSET 0 0 25.197169
                CHANNELS 3 Zrotation Yrotation Xrotation
              }
            }
          }
        }
        JOINT RightShoulder
        {
          OFFSET -7.550562 1.41573 9.438202
          CHANNELS 3 Zrotation Yrotation Xrotation
          JOINT RightArm
          {
            OFFSET -9.155056 0 4.247191
            CHANNELS 3 Zrotation Yrotation Xrotation
            JOINT RightForearm
            {
              OFFSET 0 0 -25.771955
              CHANNELS 3 Zrotation Yrotation Xrotation
              JOINT RightHand
              {
                OFFSET 0 0 -25.197169
                CHANNELS 3 Zrotation Yrotation Xrotation
              }
            }
          }
        }
        JOINT Neck
        {
          OFFSET 0 0 15.101124
          CHANNELS 3 Zrotation Yrotation Xrotation
          JOINT Head
          {
            OFFSET 0 0 11.325843
            CHANNELS 3 Zrotation Yrotation Xrotation
            End Site
            {
              OFFSET 0 0 14.157303
            }
          }
        }
      }
    }
  }
}
MOTION
Frames: 13
Frame Time: 0.0
0.0  93.25843  0.0  -107.183011  36.954866  173.463315  55.239264  -40.496176  -65.549767  -10.448464  16.836521  14.021647  -2.209522  -1.949505  0.860483  10.62649  36.376232  -28.560502  -21.253912  3.683198  8.89345  -2.295183  -0.952457  2.758892  -1.59787  -4.198605  0.407038  -4.480286  -11.44303  1.404778  -4.480286  -11.44303  1.404778  -23.326498  22.627586  1.072379  121.202158  42.781805  -156.577112  -25.188373  3.323758  73.664035  57.214355  -4.712825  -0.774306  -3.222997  -8.645898  22.854581  54.165155  44.668806  24.174426  -36.268752  -17.83303  -77.729916  54.265593  9.629652  15.858624  -14.241472  -6.553028  13.092104  -10.534343  -5.225682  9.661354  
0.0  93.25843  0.0  -107.438975  36.62199  173.333382  57.37703  -38.593207  -67.254459  -11.907856  17.293944  14.3589  -2.879899  -1.836872  0.751897  11.63346  36.296765  -28.121941  -21.949224  4.235635  10.042387  -3.216424  -0.673654  2.916838  -1.368237  -4.125545  0.342777  -3.833165  -11.252674  1.182501  -3.833165  -11.252674  1.182501  -24.206754  22.215231  0.788425  119.310703  41.990067  -157.447361  -26.04788  2.324942  73.346664  57.06767  -4.829923  -0.987817  -4.408861  -9.05173  22.706003  54.609975  43.801964  24.371964  -37.093563  -18.807304  -78.738032  54.18673  9.982496  15.765968  -14.73963  -6.90063  12.701819  -10.902983  -5.487971  9.354197  
0.0  93.25843  0.0  -107.805437  36.227131  173.111368  59.174862  -36.556665  -68.628949  -13.344283  17.583132  14.600689  -3.608107  -1.848095  0.68393  11.124993  35.696688  -28.427862  -22.413428  5.004608  11.255206  -3.302181  -0.489701  3.149522  -1.225118  -4.093019  0.283212  -3.427266  -11.169822  0.991671  -3.427266  -11.169822  0.991671  -24.987028  22.157753  0.530808  118.336549  41.524225  -157.938638  -26.520058  1.723939  73.095929  57.050599  -4.874855  -0.891176  -5.470568  -9.235226  22.607303  54.358811  43.86484  24.222021  -36.850886  -20.332446  -79.768205  54.260969  10.339762  15.623608  -15.066211  -7.132356  12.271907  -11.146594  -5.658106  9.021936  
0.0  93.25843  0.0  -108.067625  35.923606  172.963073  60.345654  -34.712921  -69.425438  -14.408514  17.536742  14.820867  -4.280732  -2.013387  0.669947  9.071373  34.880081  -29.769431  -22.072114  5.834722  12.99677  -2.791104  -0.443013  3.262124  -1.172992  -4.06482  0.275421  -3.281449  -11.094056  0.959711  -3.28145  -11.094056  0.959711  -25.531049  22.230777  0.22124  118.637176  41.614849  -157.859734  -26.396275  1.573123  72.831851  57.062606  -4.847548  -0.654988  -6.004801  -9.350964  22.255996  53.383887  44.5746  23.819345  -35.778768  -21.682494  -80.777896  54.380219  10.463066  15.393994  -15.087537  -7.337605  11.790884  -11.162925  -5.800543  8.655315  
0.0  93.25843  0.0  -108.506327  35.733291  172.623525  60.580791  -33.556731  -69.715815  -14.928334  17.237299  15.093049  -4.937633  -2.112264  0.668239  5.657524  33.809841  -31.855667  -20.636384  6.606022  15.218357  -2.165006  -0.398924  3.348411  -1.255864  -4.0421  0.310459  -3.515269  -11.028691  1.06909  -3.515269  -11.028692  1.06909  -25.584075  22.466005  0.071751  119.876456  42.235908  -157.134437  -25.83017  1.790799  72.426086  57.162028  -4.798065  -0.44191  -5.850206  -9.319001  21.778161  52.112513  45.324309  23.182276  -34.619373  -22.299176  -81.628323  54.452625  10.365158  15.151774  -14.835939  -7.461409  11.367364  -10.976305  -5.878029  8.33726  
0.0  93.25843  0.0  -109.071766  35.701656  172.130484  60.068392  -33.242551  -69.651214  -14.982251  16.965363  15.355229  -5.224296  -2.223709  0.697157  2.119976  32.597241  -33.863534  -18.790914  7.505015  17.691682  -1.669995  -0.303359  3.417365  -1.391502  -3.991776  0.339233  -3.892513  -10.886935  1.168118  -3.892513  -10.886935  1.168118  -25.449006  22.755873  0.257954  121.565551  43.113807  -156.019783  -25.075885  2.236377  71.933672  57.280466  -4.734017  -0.311212  -5.54542  -9.234279  21.48085  51.140697  45.701178  22.383803  -33.953871  -22.254461  -82.302124  54.554223  10.170933  15.047187  -14.628516  -7.576747  11.156093  -10.820693  -5.955491  8.178127  
0.0  93.25843  0.0  -110.599621  35.857855  169.914156  57.724174  -34.593565  -68.380529  -14.377599  16.681471  15.561112  -5.266927  -2.27091  0.783601  -0.897017  31.58701  -34.288366  -16.976706  8.63214  20.439593  -1.535581  -0.138655  3.468309  -1.710554  -3.900094  0.495399  -4.794126  -10.618393  1.644263  -4.794126  -10.618392  1.644263  -25.193419  23.214191  0.571612  123.048284  43.823632  -155.033525  -24.392072  2.505812  71.531914  57.371331  -4.696161  -0.264174  -5.174621  -8.954209  21.35674  50.793549  45.513649  21.736402  -33.822208  -21.985779  -83.086544  54.662375  10.042831  15.150999  -14.494015  -7.575121  11.138812  -10.720161  -5.951325  8.166798  
0.0  93.25843  0.0  -110.645026  36.073599  169.870663  56.754927  -35.502607  -67.885622  -13.521093  16.632749  15.651788  -5.100437  -2.321089  0.847271  -2.794966  30.498268  -36.020731  -15.662778  10.13382  23.482621  -1.524228  0.072684  3.50142  -1.818796  -3.870532  0.488941  -5.090052  -10.535109  1.641586  -5.090052  -10.53511  1.641586  -24.876078  23.696071  0.680063  123.67164  44.172311  -154.609299  -24.120004  2.344356  71.261359  57.445932  -4.661403  -0.273056  -4.68109  -8.490242  21.214083  51.150154  44.891554  21.443418  -34.054628  -21.996393  -84.172004  54.657071  10.122853  15.411656  -14.327031  -7.455063  11.18775  -10.597209  -5.859241  8.208678  
0.0  93.25843  0.0  -110.619717  36.387116  169.738987  55.738094  -36.726636  -67.134277  -12.487928  16.708194  15.64791  -5.080461  -2.271438  0.943687  -3.726699  29.662617  -37.221701  -15.015599  11.999752  26.706858  -1.493698  0.311079  3.531659  -1.911584  -3.823494  0.511146  -5.347172  -10.402207  1.713512  -5.347172  -10.402207  1.713511  -24.705192  23.926552  0.516975  123.472116  44.120575  -154.698081  -24.216628  1.75305  71.090229  57.452116  -4.595121  -0.364182  -4.858858  -7.977332  21.374863  52.432834  44.396408  21.42805  -34.167301  -22.7092  -85.840704  54.548868  10.525268  15.716926  -14.183834  -7.3538  11.246824  -10.491538  -5.781928  8.257311  
0.0  93.25843  0.0  -110.224203  36.7562  170.15981  55.40108  -37.616451  -66.695534  -11.551469  16.982267  15.588692  -4.919222  -2.278682  0.91462  -3.886336  28.954691  -38.525016  -14.832338  14.211812  30.15178  -1.299483  0.52289  3.571568  -1.929435  -3.769221  0.507152  -5.393349  -10.253798  1.700534  -5.393348  -10.253798  1.700534  -24.633323  23.942714  0.298453  122.798925  44.106677  -154.919097  -24.537962  1.109223  70.783167  57.455193  -4.52963  -0.45278  -4.705504  -7.866397  21.040675  53.538065  43.853833  21.883425  -33.853545  -24.153345  -87.937389  54.450645  11.153582  15.990891  -14.05748  -7.353052  11.252399  -10.396816  -5.779107  8.262944  
0.0  93.25843  0.0  -110.209332  37.166649  170.175428  55.010316  -38.240881  -66.247818  -10.697393  17.242629  15.608955  -4.590126  -2.285908  0.768174  -3.874843  28.410066  -39.525754  -14.509089  16.411568  33.878076  -1.182012  0.714167  3.638487  -1.953237  -3.693309  0.502562  -5.454905  -10.04618  1.684826  -5.454905  -10.046179  1.684826  -24.826963  23.870466  0.217674  122.008561  44.292376  -154.984255  -24.876817  0.580562  70.244547  57.527838  -4.445475  -0.44747  -5.052391  -7.910575  20.776335  54.633978  43.55415  22.436553  -32.946869  -25.908982  -90.459526  54.467015  11.845582  16.234107  -14.094637  -7.416889  11.248776  -10.423251  -5.827643  8.258108  
0.0  93.25843  0.0  -109.940261  37.625006  170.50217  55.149687  -38.156242  -66.059497  -10.416791  17.541585  15.671932  -4.669719  -2.190547  0.761062  -3.450957  27.822598  -40.52699  -14.039812  18.552075  37.726949  -1.009282  0.827388  3.665706  -1.908561  -3.62052  0.453602  -5.321513  -9.85266  1.536954  -5.321513  -9.852661  1.536954  -25.240874  23.801952  0.283017  121.249112  44.69177  -154.901198  -25.037359  0.118373  69.58809  57.71413  -4.295684  -0.421001  -5.709603  -8.014928  20.606411  55.36054  43.344811  22.78433  -31.516705  -27.308147  -93.25424  54.612502  12.409557  16.408386  -14.266334  -7.494693  11.25813  -10.550019  -5.889515  8.261055  
0.0  93.25843  0.0  -109.753209  38.057338  170.773211  55.336085  -37.488298  -65.888763  -10.74617  17.765784  15.744247  -4.65561  -2.164034  0.712827  -2.850261  27.187308  -41.360895  -13.416879  20.478919  41.687372  -0.91721  0.865862  3.647718  -1.899032  -3.556305  0.393747  -5.283925  -9.682368  1.365402  -5.283925  -9.682368  1.365402  -25.595275  23.719933  0.370846  120.589895  45.154205  -154.77636  -24.927885  -0.408584  68.975861  58.017128  -4.086217  -0.41834  -6.346954  -8.048493  20.557851  55.591162  42.928487  22.87603  -29.703943  -27.887651  -96.440167  54.893928  12.672369  16.470384  -14.380512  -7.542413  11.293165  -10.634068  -5.928338  8.284691  
